<svg width="22" height="24" viewBox="0 0 22 24" fill="none" xmlns="http://www.w3.org/2000/svg">
<path d="M19.1376 2.64711L12.2992 0.188013C11.5905 -0.0626711 10.4342 -0.0626711 9.72554 0.188013L2.8872 2.64711C1.56926 3.1246 0.5 4.60483 0.5 5.95375V15.623C0.5 16.5899 1.15897 17.8672 1.96713 18.4402L8.80548 23.3464C10.0115 24.2179 11.9884 24.2179 13.1944 23.3464L20.0328 18.4402C20.8409 17.8552 21.4999 16.5899 21.4999 15.623V5.95375C21.5123 4.60483 20.4431 3.1246 19.1376 2.64711ZM15.333 9.33203L9.98664 14.465C9.80014 14.6441 9.56391 14.7277 9.32768 14.7277C9.09144 14.7277 8.85521 14.6441 8.66871 14.465L6.67936 12.5312C6.31879 12.185 6.31879 11.612 6.67936 11.2658C7.03992 10.9196 7.63672 10.9196 7.99729 11.2658L9.34011 12.5551L14.0275 8.05473C14.388 7.70855 14.9848 7.70855 15.3454 8.05473C15.706 8.40091 15.706 8.98584 15.333 9.33203Z" fill="#2B6763"/>
</svg>
