<svg width="24" height="22" viewBox="0 0 24 22" fill="none" xmlns="http://www.w3.org/2000/svg">
<path d="M3.02783 13.0468V10.1166H5.12329C5.24982 9.71576 5.41168 9.32629 5.60651 8.95294L4.1239 7.47034L7.18744 4.4068L8.67004 5.8894C9.0434 5.69458 9.43286 5.53272 9.83368 5.40601V3.31073H14.1661V5.40601C14.5671 5.53272 14.9566 5.6944 15.33 5.8894L16.8126 4.4068L19.8759 7.47034L18.3933 8.95294C18.5883 9.32629 18.75 9.71558 18.8767 10.1166H20.9722V13.0468H24V3.5625C24 1.62396 22.4229 0.046875 20.4844 0.046875H3.51562C1.57709 0.046875 0 1.62396 0 3.5625V13.0468H3.02783Z" fill="#2B6763"/>
<path d="M8.5705 12.2729C8.5705 10.382 10.1088 8.84369 11.9995 8.84369C13.8903 8.84369 15.4285 10.382 15.4285 12.2729C15.4285 12.5391 15.397 12.7979 15.3394 13.0469L19.5654 13.0428V11.5229H17.7536C17.6179 10.4902 17.2096 9.54224 16.6035 8.75342L17.8867 7.4704L16.8119 6.39557L15.5289 7.67877C14.7402 7.07269 13.7921 6.66437 12.7594 6.52869V4.71704H11.2394V6.52869C10.2067 6.66437 9.25879 7.07269 8.46997 7.67877L7.18695 6.39557L6.11212 7.4704L7.39532 8.75342C6.78925 9.54224 6.38092 10.4902 6.24524 11.5229H4.43359V13.0428L8.65967 13.0469C8.60199 12.7979 8.5705 12.5391 8.5705 12.2729Z" fill="#2B6763"/>
<path d="M14.0231 12.2729C14.0231 11.1556 13.1174 10.25 12.0003 10.25C10.8832 10.25 9.97754 11.1558 9.97754 12.2729C9.97754 12.5471 10.0323 12.8085 10.1312 13.0469H13.8694C13.9683 12.8085 14.0231 12.5472 14.0231 12.2729Z" fill="#2B6763"/>
<path d="M0 14.4531V18.4531H6.9635V20.5469H5.49994V21.9531H18.5001V20.5469H17.0365V18.4531H24V14.4531H0Z" fill="#2B6763"/>
</svg>
