<svg width="24" height="20" viewBox="0 0 24 20" fill="none" xmlns="http://www.w3.org/2000/svg">
<path d="M23.3077 0.538467H0.692297C0.309984 0.538467 0 0.848452 0 1.23076V5.15383H24V1.23076C24 0.848452 23.69 0.538467 23.3077 0.538467ZM17.5385 4.23076H16.6154C16.233 4.23076 15.9231 3.92078 15.9231 3.53847C15.9231 3.15615 16.2331 2.84617 16.6154 2.84617H17.5385C17.9208 2.84617 18.2308 3.15615 18.2308 3.53847C18.2308 3.92078 17.9208 4.23076 17.5385 4.23076ZM20.3077 4.23076H19.3846C19.0023 4.23076 18.6923 3.92078 18.6923 3.53847C18.6923 3.15615 19.0023 2.84617 19.3846 2.84617H20.3077C20.6901 2.84617 21 3.15615 21 3.53847C21 3.92078 20.69 4.23076 20.3077 4.23076Z" fill="#2B6763"/>
<path d="M12 9.30751C10.3458 9.30751 9 10.6533 9 12.3075C9 13.9617 10.3458 15.3075 12 15.3075C13.6542 15.3075 15 13.9617 15 12.3075C15 10.6533 13.6542 9.30751 12 9.30751ZM12 13.7383C11.211 13.7383 10.5692 13.0964 10.5692 12.3075C10.5692 11.5186 11.211 10.8767 12 10.8767C12.789 10.8767 13.4308 11.5186 13.4308 12.3075C13.4308 13.0964 12.789 13.7383 12 13.7383Z" fill="#2B6763"/>
<path d="M2.07715 6.53847V9.53847C2.07715 12.189 3.10934 14.6809 4.98354 16.5551C6.85774 18.4293 9.34966 19.4615 12.0002 19.4615C14.6508 19.4615 17.1427 18.4293 19.0169 16.5551C20.8911 14.6809 21.9233 12.189 21.9233 9.53847V6.53847H2.07715ZM12.0002 16.6923C9.58254 16.6923 7.61562 14.7254 7.61562 12.3077C7.61562 9.89003 9.58254 7.92311 12.0002 7.92311C14.4179 7.92311 16.3848 9.89003 16.3848 12.3077C16.3848 14.7254 14.4179 16.6923 12.0002 16.6923Z" fill="#2B6763"/>
</svg>
