<svg width="24" height="24" viewBox="0 0 24 24" fill="none" xmlns="http://www.w3.org/2000/svg">
<path d="M21.9959 9.33564H21.9598C21.6737 9.33392 21.3946 9.24753 21.1575 9.08737C20.9205 8.9272 20.7362 8.70043 20.6279 8.43565C20.6279 8.43408 20.6276 8.43252 20.627 8.43107C20.6264 8.42962 20.6255 8.42831 20.6244 8.42722C20.6232 8.42612 20.6219 8.42527 20.6204 8.42471C20.619 8.42415 20.6174 8.42389 20.6158 8.42395C20.5091 8.15999 20.4818 7.87062 20.5372 7.59135C20.5926 7.31208 20.7284 7.05507 20.9279 6.85188L20.9638 6.81588C21.3385 6.43986 21.5489 5.93066 21.5489 5.39983C21.5489 4.86899 21.3385 4.3598 20.9638 3.98377L20.0159 3.048C19.6399 2.67328 19.1307 2.46287 18.5999 2.46287C18.069 2.46287 17.5599 2.67328 17.1839 3.048L17.1719 3.07202C16.9641 3.27214 16.7023 3.40716 16.4187 3.46047C16.1351 3.51377 15.8422 3.48304 15.5759 3.37205C15.3074 3.26767 15.0767 3.08465 14.9139 2.84695C14.7512 2.60926 14.664 2.32796 14.6638 2.03989V2.00389C14.6647 1.7415 14.6139 1.48151 14.5142 1.23877C14.4146 0.996036 14.2681 0.775313 14.0831 0.589217C13.8981 0.403121 13.6783 0.255299 13.4361 0.154199C13.194 0.0530982 12.9343 0.00070059 12.6719 0H11.3279C11.0655 0.00070059 10.8058 0.0530982 10.5637 0.154199C10.3215 0.255299 10.1017 0.403121 9.91672 0.589217C9.73174 0.775313 9.58524 0.996036 9.48559 1.23877C9.38595 1.48151 9.33511 1.7415 9.33598 2.00389V2.03989C9.33581 2.32635 9.25004 2.60622 9.08968 2.84359C8.92932 3.08095 8.70168 3.26498 8.43599 3.37205C8.25479 3.45287 8.05832 3.49373 7.85993 3.49187C7.47779 3.49236 7.11102 3.34139 6.83996 3.07202L6.81594 3.048C6.43995 2.67328 5.93077 2.46287 5.39994 2.46287C4.86911 2.46287 4.35992 2.67328 3.98394 3.048L3.03602 3.98377C2.66133 4.3598 2.45095 4.86899 2.45095 5.39983C2.45095 5.93066 2.66133 6.43986 3.03602 6.81588L3.07196 6.85188C3.27313 7.0565 3.40955 7.31585 3.46418 7.59755C3.51882 7.87924 3.48924 8.17079 3.37914 8.43577C3.26905 8.70075 3.08332 8.92742 2.84515 9.08746C2.60699 9.24751 2.32694 9.33383 2.04001 9.33564H2.00395C1.47272 9.33661 0.963524 9.54809 0.587912 9.92375C0.2123 10.2994 0.000892175 10.8086 0 11.3399V12.672C0.000966552 13.2032 0.212409 13.7123 0.588014 14.0879C0.96362 14.4635 1.47277 14.6749 2.00395 14.6759H2.04001C2.32699 14.6736 2.60793 14.7584 2.84572 14.919C3.08352 15.0797 3.267 15.3087 3.37194 15.5759C3.58794 16.1159 3.48 16.7639 3.07196 17.172L3.04794 17.1837C2.6732 17.5621 2.46298 18.0731 2.46298 18.6057C2.46298 19.1383 2.6732 19.6494 3.04794 20.0278L3.98394 20.9638C4.35999 21.3384 4.86915 21.5487 5.39994 21.5487C5.93073 21.5487 6.43989 21.3384 6.81594 20.9638L6.83996 20.9398C7.04034 20.7359 7.29747 20.5971 7.57786 20.5414C7.85826 20.4858 8.14891 20.5159 8.41197 20.6278C8.68254 20.7341 8.91511 20.9189 9.07978 21.1585C9.24444 21.3981 9.33367 21.6814 9.33598 21.9721V22.0079C9.33533 22.2697 9.38641 22.529 9.48629 22.771C9.58616 23.0129 9.73285 23.2328 9.91794 23.4179C10.103 23.603 10.3229 23.7497 10.5648 23.8496C10.8068 23.9495 11.0661 24.0007 11.3279 24H12.6719C12.9337 24.0007 13.193 23.9495 13.435 23.8496C13.6769 23.7497 13.8968 23.603 14.0819 23.4179C14.267 23.2328 14.4137 23.0129 14.5135 22.771C14.6134 22.529 14.6645 22.2697 14.6638 22.0079V21.9721C14.6661 21.6814 14.7554 21.3981 14.92 21.1585C15.0847 20.9189 15.3173 20.7341 15.5878 20.6278C15.8509 20.5159 16.1416 20.4858 16.422 20.5414C16.7023 20.5971 16.9595 20.7359 17.1599 20.9398L17.1839 20.9638C17.5599 21.3384 18.0691 21.5487 18.5999 21.5487C19.1307 21.5487 19.6398 21.3384 20.0159 20.9638L20.9519 20.0278C21.3266 19.6494 21.5368 19.1383 21.5368 18.6057C21.5368 18.0731 21.3266 17.5621 20.9519 17.1837L20.9279 17.172C20.5198 16.7639 20.4119 16.1158 20.6279 15.5759C20.7328 15.3087 20.9163 15.0797 21.1541 14.919C21.3919 14.7584 21.6728 14.6736 21.9598 14.6759H21.9959C22.527 14.6749 23.0362 14.4635 23.4118 14.0879C23.7874 13.7123 23.9988 13.2032 23.9998 12.672V11.3399C23.9989 10.8086 23.7875 10.2994 23.4119 9.92375C23.0363 9.54809 22.5271 9.33661 21.9959 9.33564ZM11.9999 16.1999C11.1692 16.1999 10.3572 15.9536 9.66652 15.4921C8.97583 15.0306 8.43751 14.3746 8.11962 13.6072C7.80173 12.8397 7.71856 11.9952 7.88062 11.1805C8.04267 10.3658 8.44268 9.61744 9.03006 9.03006C9.61744 8.44269 10.3658 8.04267 11.1805 7.88062C11.9952 7.71856 12.8397 7.80173 13.6072 8.11962C14.3746 8.43751 15.0306 8.97583 15.4921 9.66652C15.9536 10.3572 16.1999 11.1692 16.1999 11.9999C16.1987 13.1134 15.7558 14.181 14.9684 14.9684C14.181 15.7558 13.1134 16.1987 11.9999 16.1999Z" fill="#2B6763"/>
</svg>
