<svg width="96" height="19" viewBox="0 0 96 19" fill="none" xmlns="http://www.w3.org/2000/svg">
<path fill-rule="evenodd" clip-rule="evenodd" d="M90.228 11.6595C90.454 11.8569 90.5657 11.9685 90.7059 12.0802C92.2253 13.3736 93.7447 14.6697 95.2355 15.9631C95.3186 16.0462 95.4614 16.1605 95.5445 16.2436C96.1081 16.8072 96.1627 17.6227 95.6303 18.1837C95.1238 18.7473 94.3368 18.8304 93.7447 18.3525C92.6746 17.4799 91.6617 16.5812 90.6228 15.7086C89.132 14.4411 87.6697 13.1763 86.1763 11.9114C86.0647 11.7997 85.8958 11.6854 85.6699 11.5166C85.6699 11.8257 85.6413 12.0231 85.6413 12.2205C85.6413 15.7943 85.6413 13.1217 85.6413 16.6929C85.6413 16.8617 85.6413 17.0306 85.6413 17.1994C85.5842 17.9863 84.9946 18.5499 84.205 18.4928C83.4466 18.4642 82.9402 17.9006 82.9116 17.1137C82.9116 16.9448 82.9116 16.776 82.9116 16.6072C82.9116 9.54533 82.9116 8.7298 82.9116 1.66793C82.9116 1.44197 82.9116 1.24458 82.9116 1.02122C82.9116 0.514756 82.9688 0.429048 83.4467 0.429048C84.0934 0.400478 84.7401 0.400478 85.3868 0.400478C86.9347 0.400478 88.5372 0.457617 90.0852 0.371909C92.7006 0.260228 95.6277 2.36918 95.9082 5.43651C96.1627 8.19477 94.2771 10.8102 91.4617 11.3738C91.1007 11.4621 90.7059 11.5738 90.228 11.6595ZM85.4751 9.49338C85.6439 9.52195 85.7556 9.52195 85.8413 9.52195C87.1347 9.52195 88.4567 9.52195 89.7527 9.52195C90.1189 9.52195 90.5137 9.49339 90.8773 9.35313C92.0876 8.98693 93.0434 8.2571 93.3525 6.96108C93.8875 4.73785 92.2279 2.71201 89.9475 2.71201C88.597 2.71201 87.275 2.71201 85.8958 2.71201C85.727 2.71201 85.5868 2.74058 85.4179 2.74058C85.4751 4.98979 85.4751 7.21302 85.4751 9.49338Z" fill="#1B1918"/>
<path fill-rule="evenodd" clip-rule="evenodd" d="M30.3627 10.3921C27.7733 10.3921 25.2696 10.3921 22.7087 10.3921C22.7087 10.6181 22.6801 10.8155 22.6801 11.0103C22.6801 12.979 22.6801 14.9217 22.6801 16.8904C22.6801 17.1449 22.6801 17.3969 22.623 17.5943C22.4256 18.1864 21.8075 18.55 21.2153 18.5241C20.5686 18.4669 20.0336 17.9605 19.9504 17.3138C19.9219 17.1449 19.9504 17.0047 19.9504 16.8359C19.9504 9.83113 19.9219 8.98704 19.9219 2.00827C19.9219 1.72777 19.9504 1.44468 20.0336 1.19274C20.2595 0.600575 20.8777 0.262935 21.5244 0.348644C22.1139 0.431755 22.6204 0.938215 22.6775 1.55895C22.7061 1.75634 22.6775 1.92516 22.6775 2.12255C22.6775 5.72491 22.7061 3.16404 22.7061 6.76381C22.7061 6.98976 22.7347 7.18456 22.7347 7.38195C23.2126 7.49363 29.8537 7.49363 30.3601 7.38195C30.3601 7.21313 30.3887 7.04431 30.3887 6.84692C30.3887 5.2704 30.3887 3.66791 30.3887 2.09139C30.3887 1.92257 30.3887 1.78232 30.3887 1.6135C30.4459 0.909646 30.9809 0.374616 31.6821 0.348644C32.386 0.320074 33.0327 0.855104 33.1158 1.55895C33.1444 1.72777 33.1158 1.86802 33.1158 2.03684C33.1158 6.96119 33.1158 11.857 33.1158 16.7813C33.1158 16.9501 33.1158 17.0904 33.1158 17.2592C33.0327 17.9631 32.412 18.5241 31.7081 18.4981C31.0043 18.4695 30.4407 17.9085 30.3576 17.2047C30.3576 17.0359 30.3576 16.8956 30.3576 16.7268C30.3576 14.8412 30.3576 12.9011 30.3576 11.0155C30.3627 10.8441 30.3627 10.6467 30.3627 10.3921Z" fill="#1B1918"/>
<path fill-rule="evenodd" clip-rule="evenodd" d="M2.58602 17.2594C1.8588 16.8361 0.352403 15.6024 0.11086 14.7557C-0.05796 14.2492 -0.0865296 13.6856 0.391361 13.2363C0.926391 12.7299 1.65881 12.5325 2.38863 13.0104C3.09248 13.5168 3.43012 14.1635 4.01969 14.7557C4.86379 15.5998 5.95982 16.0491 7.14156 16.1894C8.62199 16.34 10.3907 16.2024 11.614 15.2622C12.2893 14.5012 12.4867 13.4337 11.6711 12.7013C11.2764 12.3637 10.7699 12.1091 10.2634 11.8858C9.02975 11.3507 7.73633 10.9845 6.44031 10.6469C5.05339 10.317 3.39116 9.8885 2.1367 9.21322C1.15235 8.67819 0.58875 7.83409 0.41993 6.76662C-0.481309 0.281336 7.59089 -0.622501 12.0971 1.92538C12.6607 2.23445 13.1931 2.71234 13.6736 3.13569C14.0398 3.44476 14.3203 3.89409 14.4606 4.37457C14.6008 4.96674 14.3203 5.58488 13.5879 5.7537C12.9698 5.89395 12.4062 5.69656 11.9568 5.21867C11.8711 5.13556 11.788 5.02128 11.7309 4.93817C10.1751 2.57469 5.82217 2.25783 3.88204 4.03693C3.37558 4.71221 3.17819 5.61345 3.85347 6.45755C4.96508 7.50943 8.609 8.12498 10.1829 8.51196C11.1387 8.76389 12.0685 9.07556 12.9412 9.58202C14.0658 10.1742 14.8813 11.0443 15.1644 12.3117C15.5021 13.8597 15.1644 15.3219 13.9541 16.4465C10.9699 19.1217 5.97281 19.3139 2.58602 17.2594Z" fill="#1B1918"/>
<path fill-rule="evenodd" clip-rule="evenodd" d="M46.7639 0.43457C51.735 0.43457 55.7659 4.46547 55.7659 9.43657C55.7659 9.45735 55.7659 9.48073 55.7659 9.50151C55.7633 9.93784 55.449 10.3015 55.0335 10.382V10.3976H54.8594H54.0595H39.4631H38.9176H38.6631C38.167 10.3976 37.7619 9.99498 37.7593 9.49891C37.7593 9.47813 37.7593 9.45475 37.7593 9.43398C37.7619 4.46547 41.7928 0.43457 46.7639 0.43457ZM52.8232 7.39255C51.9713 4.86285 49.5793 3.04219 46.7639 3.04219C43.9485 3.04219 41.5564 4.86285 40.7045 7.39255H52.8232Z" fill="#1B1918"/>
<path fill-rule="evenodd" clip-rule="evenodd" d="M53.9839 14.8155C52.3425 17.0154 49.7193 18.4412 46.7636 18.4412C43.808 18.4412 41.1848 17.0154 39.5433 14.8155C39.3823 14.5999 39.3278 14.3532 39.3823 14.0909C39.4369 13.8285 39.5849 13.6234 39.816 13.4909L40.5121 13.0883C40.9069 12.8598 41.4056 12.9585 41.6835 13.3221C42.8522 14.8467 44.6911 15.831 46.7636 15.831C48.8336 15.831 50.6751 14.8467 51.8438 13.3221C52.1217 12.9585 52.6178 12.8598 53.0152 13.0883L53.7112 13.4909C53.9424 13.626 54.0904 13.8285 54.145 14.0909C54.1995 14.3532 54.145 14.5999 53.9839 14.8155Z" fill="#1B1918"/>
<path fill-rule="evenodd" clip-rule="evenodd" d="M69.3459 0.43457C74.317 0.43457 78.3479 4.46547 78.3479 9.43657C78.3479 9.45735 78.3479 9.48073 78.3479 9.50151C78.3453 9.93784 78.0311 10.3015 77.6155 10.382V10.3976H77.4415H76.6415H62.0451H61.4997H61.2451C60.7491 10.3976 60.3439 9.99498 60.3413 9.49891C60.3413 9.47813 60.3413 9.45475 60.3413 9.43398C60.3439 4.46547 64.3748 0.43457 69.3459 0.43457ZM75.4052 7.39255C74.5534 4.86285 72.1613 3.04219 69.3459 3.04219C66.5305 3.04219 64.1385 4.86285 63.2866 7.39255H75.4052Z" fill="#1B1918"/>
<path fill-rule="evenodd" clip-rule="evenodd" d="M76.566 14.8155C74.9245 17.0154 72.3013 18.4412 69.3457 18.4412C66.39 18.4412 63.7668 17.0154 62.1254 14.8155C61.9643 14.5999 61.9098 14.3532 61.9643 14.0909C62.0189 13.8285 62.1669 13.6234 62.3981 13.4909L63.0941 13.0883C63.4889 12.8598 63.9876 12.9585 64.2655 13.3221C65.4342 14.8467 67.2731 15.831 69.3457 15.831C71.4157 15.831 73.2571 14.8467 74.4259 13.3221C74.7038 12.9585 75.1998 12.8598 75.5972 13.0883L76.2933 13.4909C76.5244 13.626 76.6725 13.8285 76.727 14.0909C76.7815 14.3532 76.727 14.5999 76.566 14.8155Z" fill="#1B1918"/>
</svg>
