<svg width="25" height="26" viewBox="0 0 25 26" fill="none" xmlns="http://www.w3.org/2000/svg">
<path d="M22.0752 8.17402L21.0492 7.14807C20.8261 6.92276 20.7005 6.61876 20.6996 6.30167V5.09618C20.6996 4.32583 20.3938 3.58698 19.8494 3.04194C19.305 2.4969 18.5665 2.19024 17.7961 2.18934H16.5924C16.4354 2.19116 16.2797 2.16189 16.1341 2.10319C15.9885 2.04449 15.856 1.95754 15.7442 1.84735L14.7183 0.821408C14.1653 0.294142 13.4305 0 12.6664 0C11.9023 0 11.1675 0.294142 10.6145 0.821408L9.58857 1.84735C9.47788 1.95889 9.34614 2.04732 9.20098 2.10749C9.05582 2.16767 8.90015 2.19839 8.74302 2.19789H7.53668C6.76721 2.19788 6.02914 2.50296 5.48424 3.04626C4.93935 3.58955 4.6321 4.32672 4.62983 5.09618V6.29312C4.63355 6.61215 4.51056 6.91962 4.28785 7.14807L3.2619 8.17402C2.71894 8.71887 2.41406 9.45671 2.41406 10.2259C2.41406 10.9951 2.71894 11.733 3.2619 12.2778L4.28785 13.3037C4.51098 13.5291 4.63657 13.8331 4.63753 14.1502V15.3556C4.63752 16.1252 4.94272 16.8635 5.4862 17.4084C6.02968 17.9533 6.76707 18.2604 7.53668 18.2625H8.73361C8.89067 18.262 9.04626 18.2927 9.19139 18.3527C9.33653 18.4127 9.46832 18.5009 9.57917 18.6122L10.6145 19.6304C11.1594 20.1734 11.8972 20.4783 12.6664 20.4783C13.4356 20.4783 14.1735 20.1734 14.7183 19.6304L15.7442 18.6045C15.8549 18.4929 15.9867 18.4045 16.1318 18.3443C16.277 18.2842 16.4327 18.2534 16.5898 18.2539H17.7961C18.5656 18.2539 19.3037 17.9489 19.8486 17.4056C20.3935 16.8623 20.7007 16.1251 20.703 15.3556V14.1519C20.7038 13.835 20.8294 13.5312 21.0527 13.3063L22.0786 12.2804C22.6219 11.735 22.9267 10.9963 22.926 10.2265C22.9254 9.45666 22.6194 8.71852 22.0752 8.17402ZM12.6664 15.7831C11.5673 15.7831 10.4929 15.4572 9.57899 14.8466C8.66511 14.2359 7.95283 13.368 7.53222 12.3526C7.11161 11.3371 7.00156 10.2197 7.21598 9.14175C7.43041 8.06376 7.95968 7.07356 8.73687 6.29637C9.51406 5.51918 10.5043 4.98991 11.5822 4.77548C12.6602 4.56106 13.7776 4.67111 14.7931 5.09172C15.8085 5.51233 16.6764 6.22461 17.2871 7.13849C17.8977 8.05237 18.2236 9.1268 18.2236 10.2259C18.2218 11.6992 17.6357 13.1117 16.5939 14.1534C15.5522 15.1952 14.1397 15.7813 12.6664 15.7831Z" fill="#2B6763"/>
<path d="M12.6661 14.0733C14.7909 14.0733 16.5134 12.3508 16.5134 10.226C16.5134 8.10116 14.7909 6.37866 12.6661 6.37866C10.5413 6.37866 8.81885 8.10116 8.81885 10.226C8.81885 12.3508 10.5413 14.0733 12.6661 14.0733Z" fill="#2B6763"/>
<path d="M24.4649 22.2037C24.3755 22.3354 24.2518 22.4401 24.1071 22.5065C23.9624 22.5728 23.8023 22.5982 23.6442 22.5799L20.0363 22.1439L18.617 25.4868C18.554 25.632 18.4518 25.7568 18.322 25.8474C18.1922 25.9379 18.0398 25.9907 17.8818 25.9997H17.8305C17.6795 26.0019 17.5308 25.9633 17.3999 25.8881C17.269 25.8128 17.1608 25.7038 17.0867 25.5723L14.3936 20.9128C14.7383 20.739 15.053 20.5109 15.3255 20.2373L16.3514 19.2114C16.4164 19.1509 16.502 19.1173 16.5908 19.1174H17.7963C18.6649 19.1138 19.5057 18.8108 20.177 18.2594C20.8482 17.7081 21.3088 16.9422 21.4811 16.0908L24.4906 21.2975C24.5705 21.4361 24.6105 21.5943 24.606 21.7542C24.6014 21.9142 24.5526 22.0698 24.4649 22.2037Z" fill="#2B6763"/>
<path d="M10.9393 20.9128L8.2462 25.5723C8.17204 25.7038 8.06383 25.8128 7.93295 25.8881C7.80206 25.9633 7.65333 26.0019 7.50239 25.9997H7.45964C7.30012 25.9922 7.1459 25.9402 7.01443 25.8495C6.88297 25.7589 6.77953 25.6332 6.71583 25.4868L5.2966 22.1439L1.68869 22.5799C1.53041 22.6001 1.36966 22.5755 1.22461 22.509C1.07956 22.4425 0.956014 22.3368 0.867937 22.2037C0.780256 22.0698 0.731437 21.9142 0.726909 21.7542C0.722381 21.5943 0.762321 21.4361 0.842289 21.2975L3.85173 16.0908C4.02403 16.9422 4.48464 17.7081 5.15589 18.2594C5.82713 18.8108 6.66796 19.1138 7.53658 19.1174H8.74207C8.83088 19.1173 8.91641 19.1509 8.98146 19.2114L10.0074 20.2373C10.2799 20.5109 10.5945 20.739 10.9393 20.9128Z" fill="#2B6763"/>
</svg>
