<svg width="29" height="20" viewBox="0 0 29 20" fill="none" xmlns="http://www.w3.org/2000/svg">
<path d="M23.5591 17.4555C23.5654 17.3793 23.5654 17.3027 23.5591 17.2265C23.5591 16.5516 23.291 15.9044 22.8139 15.4272C22.3367 14.95 21.6895 14.6819 21.0146 14.6819C20.3397 14.6819 19.6925 14.95 19.2153 15.4272C18.7382 15.9044 18.4701 16.5516 18.4701 17.2265C18.4638 17.3027 18.4638 17.3793 18.4701 17.4555C18.4701 18.1303 18.7382 18.7776 19.2153 19.2547C19.6925 19.7319 20.3397 20 21.0146 20C21.6895 20 22.3367 19.7319 22.8139 19.2547C23.291 18.7776 23.5591 18.1303 23.5591 17.4555Z" fill="#2B6763"/>
<path d="M13.3809 17.4555C13.3872 17.3793 13.3872 17.3027 13.3809 17.2265C13.3809 16.5516 13.1128 15.9044 12.6356 15.4272C12.1584 14.95 11.5112 14.6819 10.8364 14.6819C10.1615 14.6819 9.51431 14.95 9.03712 15.4272C8.55993 15.9044 8.29184 16.5516 8.29184 17.2265C8.28553 17.3027 8.28553 17.3793 8.29184 17.4555C8.29184 18.1303 8.55993 18.7776 9.03712 19.2547C9.51431 19.7319 10.1615 20 10.8364 20C11.5112 20 12.1584 19.7319 12.6356 19.2547C13.1128 18.7776 13.3809 18.1303 13.3809 17.4555Z" fill="#2B6763"/>
<path d="M3.83916 11.4122H1.93076C1.75557 11.4118 1.58373 11.4603 1.43458 11.5522C1.30497 11.6321 1.19636 11.7418 1.11783 11.8723C1.0393 12.0027 0.993126 12.1501 0.983163 12.302C0.9732 12.4539 0.99974 12.606 1.06056 12.7456C1.12139 12.8852 1.21473 13.0082 1.3328 13.1043C1.49932 13.2465 1.71182 13.3234 1.93076 13.3206H5.11143C5.3645 13.3206 5.6072 13.4212 5.78615 13.6001C5.9651 13.7791 6.06563 14.0218 6.06563 14.2748C6.06563 14.5279 5.9651 14.7706 5.78615 14.9495C5.6072 15.1285 5.3645 15.229 5.11143 15.229H3.83916C3.58609 15.229 3.34339 15.3296 3.16444 15.5085C2.98549 15.6875 2.88496 15.9302 2.88496 16.1832C2.88496 16.4363 2.98549 16.679 3.16444 16.858C3.34339 17.0369 3.58609 17.1374 3.83916 17.1374H7.35062C7.40535 16.4904 7.6437 15.8724 8.03764 15.3563C8.36689 14.9253 8.79017 14.5752 9.27524 14.3327C9.7603 14.0902 10.2943 13.9616 10.8366 13.9568C11.7106 13.9534 12.554 14.2785 13.1996 14.8676C13.8453 15.4567 14.2461 16.2668 14.3226 17.1374H17.5288C17.6034 16.2643 18.003 15.451 18.6485 14.8583C19.294 14.2656 20.1384 13.9368 21.0148 13.9368C21.8911 13.9368 22.7355 14.2656 23.381 14.8583C24.0265 15.451 24.4261 16.2643 24.5008 17.1374H26.2311C26.5287 17.1434 26.819 17.0449 27.0515 16.8589C27.284 16.6729 27.4438 16.4113 27.5033 16.1196L28.343 11.9211C28.3364 11.8918 28.3364 11.8614 28.343 11.8321C28.3611 11.7226 28.3611 11.6108 28.343 11.5013L25.9512 4.45293C25.8208 4.07862 25.5764 3.75457 25.2524 3.52636C24.9283 3.29814 24.5409 3.17725 24.1445 3.18067H21.8545L21.9944 2.16285C22.0286 1.89317 22.0052 1.6193 21.9257 1.35935C21.8462 1.09939 21.7125 0.859256 21.5333 0.654825C21.3541 0.450393 21.1336 0.286315 20.8863 0.173434C20.639 0.060553 20.3706 0.00143949 20.0987 0H5.74756C5.49449 0 5.25179 0.100532 5.07284 0.279479C4.89389 0.458426 4.79336 0.701131 4.79336 0.9542C4.79336 1.20727 4.89389 1.44997 5.07284 1.62892C5.25179 1.80787 5.49449 1.9084 5.74756 1.9084H7.3379C7.59097 1.9084 7.83367 2.00893 8.01262 2.18788C8.19156 2.36683 8.2921 2.60953 8.2921 2.8626C8.2921 3.11567 8.19156 3.35837 8.01262 3.53732C7.83367 3.71627 7.59097 3.8168 7.3379 3.8168H1.93076C1.67872 3.82009 1.43792 3.92168 1.25969 4.09992C1.08145 4.27816 0.979859 4.51895 0.976564 4.771C0.976211 5.01212 1.06839 5.24419 1.23409 5.41936C1.39979 5.59453 1.62638 5.69944 1.86715 5.71248H5.11143C5.3645 5.71248 5.6072 5.81301 5.78615 5.99195C5.9651 6.1709 6.06563 6.41361 6.06563 6.66668C6.06563 6.91975 5.9651 7.16245 5.78615 7.3414C5.6072 7.52034 5.3645 7.62088 5.11143 7.62088H3.20303H2.99947C2.78735 7.66719 2.59738 7.78446 2.4609 7.95332C2.32443 8.12217 2.24962 8.33252 2.24883 8.54963C2.24883 8.8027 2.34936 9.0454 2.52831 9.22435C2.70726 9.4033 2.94996 9.50383 3.20303 9.50383H3.83916C4.09223 9.50383 4.33494 9.60436 4.51388 9.78331C4.69283 9.96226 4.79336 10.205 4.79336 10.458C4.79336 10.7111 4.69283 10.9538 4.51388 11.1328C4.33494 11.3117 4.09223 11.4122 3.83916 11.4122ZM21.6509 5.0509H23.9664C24.0332 5.05191 24.0981 5.07311 24.1526 5.11172C24.2071 5.15032 24.2486 5.20452 24.2718 5.26718L26.1038 10.7761H20.8875L21.6509 5.0509Z" fill="#2B6763"/>
</svg>
