<svg width="25" height="24" viewBox="0 0 25 24" fill="none" xmlns="http://www.w3.org/2000/svg">
<path d="M22.3294 9.33564H22.2933C22.0072 9.33392 21.7281 9.24753 21.491 9.08737C21.254 8.9272 21.0697 8.70043 20.9614 8.43565C20.9614 8.43408 20.9611 8.43252 20.9605 8.43107C20.9599 8.42962 20.959 8.42831 20.9579 8.42722C20.9567 8.42612 20.9554 8.42527 20.9539 8.42471C20.9525 8.42415 20.9509 8.42389 20.9493 8.42395C20.8426 8.15999 20.8153 7.87062 20.8707 7.59135C20.9261 7.31208 21.0619 7.05507 21.2613 6.85188L21.2973 6.81588C21.672 6.43986 21.8824 5.93066 21.8824 5.39983C21.8824 4.86899 21.672 4.3598 21.2973 3.98377L20.3494 3.048C19.9734 2.67328 19.4642 2.46287 18.9334 2.46287C18.4025 2.46287 17.8934 2.67328 17.5174 3.048L17.5054 3.07202C17.2976 3.27214 17.0358 3.40716 16.7522 3.46047C16.4686 3.51377 16.1757 3.48304 15.9094 3.37205C15.6409 3.26767 15.4102 3.08465 15.2474 2.84695C15.0847 2.60926 14.9975 2.32796 14.9973 2.03989V2.00389C14.9982 1.7415 14.9474 1.48151 14.8477 1.23877C14.7481 0.996036 14.6016 0.775313 14.4166 0.589217C14.2316 0.403121 14.0118 0.255299 13.7696 0.154199C13.5275 0.0530982 13.2678 0.00070059 13.0054 0H11.6614C11.399 0.00070059 11.1393 0.0530982 10.8972 0.154199C10.655 0.255299 10.4352 0.403121 10.2502 0.589217C10.0652 0.775313 9.91873 0.996036 9.81909 1.23877C9.71944 1.48151 9.6686 1.7415 9.66948 2.00389V2.03989C9.66931 2.32635 9.58354 2.60622 9.42318 2.84359C9.26281 3.08095 9.03518 3.26498 8.76948 3.37205C8.58829 3.45287 8.39182 3.49373 8.19343 3.49187C7.81128 3.49236 7.44451 3.34139 7.17345 3.07202L7.14944 3.048C6.77345 2.67328 6.26426 2.46287 5.73343 2.46287C5.20261 2.46287 4.69342 2.67328 4.31743 3.048L3.36951 3.98377C2.99483 4.3598 2.78445 4.86899 2.78445 5.39983C2.78445 5.93066 2.99483 6.43986 3.36951 6.81588L3.40546 6.85188C3.60663 7.0565 3.74305 7.31585 3.79768 7.59755C3.85231 7.87924 3.82273 8.17079 3.71264 8.43577C3.60254 8.70075 3.41681 8.92742 3.17865 9.08746C2.94048 9.24751 2.66044 9.33383 2.3735 9.33564H2.33745C1.80621 9.33661 1.29702 9.54809 0.921408 9.92375C0.545796 10.2994 0.334388 10.8086 0.333496 11.3399V12.672C0.334463 13.2032 0.545905 13.7123 0.921511 14.0879C1.29712 14.4635 1.80627 14.6749 2.33745 14.6759H2.3735C2.66049 14.6736 2.94142 14.7584 3.17922 14.919C3.41702 15.0797 3.6005 15.3087 3.70544 15.5759C3.92144 16.1159 3.81349 16.7639 3.40546 17.172L3.38144 17.1837C3.0067 17.5621 2.79648 18.0731 2.79648 18.6057C2.79648 19.1383 3.0067 19.6494 3.38144 20.0278L4.31743 20.9638C4.69349 21.3384 5.20265 21.5487 5.73343 21.5487C6.26422 21.5487 6.77338 21.3384 7.14944 20.9638L7.17345 20.9398C7.37383 20.7359 7.63097 20.5971 7.91136 20.5414C8.19175 20.4858 8.48241 20.5159 8.74546 20.6278C9.01603 20.7341 9.24861 20.9189 9.41327 21.1585C9.57794 21.3981 9.66717 21.6814 9.66948 21.9721V22.0079C9.66883 22.2697 9.71991 22.529 9.81978 22.771C9.91965 23.0129 10.0663 23.2328 10.2514 23.4179C10.4365 23.603 10.6564 23.7497 10.8983 23.8496C11.1403 23.9495 11.3996 24.0007 11.6614 24H13.0054C13.2672 24.0007 13.5265 23.9495 13.7685 23.8496C14.0104 23.7497 14.2303 23.603 14.4154 23.4179C14.6005 23.2328 14.7472 23.0129 14.847 22.771C14.9469 22.529 14.998 22.2697 14.9973 22.0079V21.9721C14.9996 21.6814 15.0889 21.3981 15.2535 21.1585C15.4182 20.9189 15.6508 20.7341 15.9213 20.6278C16.1844 20.5159 16.4751 20.4858 16.7554 20.5414C17.0358 20.5971 17.293 20.7359 17.4934 20.9398L17.5174 20.9638C17.8934 21.3384 18.4026 21.5487 18.9334 21.5487C19.4642 21.5487 19.9733 21.3384 20.3494 20.9638L21.2854 20.0278C21.6601 19.6494 21.8703 19.1383 21.8703 18.6057C21.8703 18.0731 21.6601 17.5621 21.2854 17.1837L21.2613 17.172C20.8533 16.7639 20.7454 16.1158 20.9614 15.5759C21.0663 15.3087 21.2498 15.0797 21.4876 14.919C21.7254 14.7584 22.0063 14.6736 22.2933 14.6759H22.3294C22.8605 14.6749 23.3697 14.4635 23.7453 14.0879C24.1209 13.7123 24.3323 13.2032 24.3333 12.672V11.3399C24.3324 10.8086 24.121 10.2994 23.7454 9.92375C23.3698 9.54809 22.8606 9.33661 22.3294 9.33564ZM12.3334 16.1999C11.5027 16.1999 10.6907 15.9536 10 15.4921C9.30933 15.0306 8.771 14.3746 8.45312 13.6072C8.13523 12.8397 8.05205 11.9952 8.21411 11.1805C8.37617 10.3658 8.77618 9.61744 9.36356 9.03006C9.95094 8.44269 10.6993 8.04267 11.514 7.88062C12.3287 7.71856 13.1732 7.80173 13.9407 8.11962C14.7081 8.43751 15.3641 8.97583 15.8256 9.66652C16.2871 10.3572 16.5334 11.1692 16.5334 11.9999C16.5322 13.1134 16.0893 14.181 15.3019 14.9684C14.5145 15.7558 13.4469 16.1987 12.3334 16.1999Z" fill="#2B6763"/>
</svg>
