<svg width="22" height="22" viewBox="0 0 22 22" fill="none" xmlns="http://www.w3.org/2000/svg">
<path d="M17.3449 14.1266L21.5561 9.8263C21.957 9.41689 22.1006 8.80427 21.9282 8.2466C21.7544 7.68892 21.2946 7.28176 20.74 7.19747L14.921 6.31242L12.319 0.789099C11.8247 -0.263033 10.1753 -0.263033 9.68103 0.789099L7.079 6.31242L1.26 7.19747C0.705401 7.28176 0.245628 7.68892 0.0717763 8.2466C-0.100638 8.80427 0.0430406 9.41689 0.443905 9.8263L4.65512 14.1266L3.66088 20.1979C3.56605 20.7759 3.79306 21.3606 4.24565 21.7053C4.70111 22.0508 5.30025 22.0959 5.79595 21.8227L11 18.9561L16.2041 21.8227C16.6986 22.0943 17.3003 22.0511 17.7543 21.7053C18.2069 21.3606 18.434 20.7759 18.3391 20.1979L17.3449 14.1266Z" fill="#2B6763"/>
</svg>
