<svg width="22" height="24" viewBox="0 0 22 24" fill="none" xmlns="http://www.w3.org/2000/svg">
<path d="M19.4711 2.64711L12.6327 0.188013C11.924 -0.0626711 10.7677 -0.0626711 10.059 0.188013L3.22069 2.64711C1.90276 3.1246 0.833496 4.60483 0.833496 5.95375V15.623C0.833496 16.5899 1.49246 17.8672 2.30063 18.4402L9.13897 23.3464C10.345 24.2179 12.3219 24.2179 13.5279 23.3464L20.3663 18.4402C21.1744 17.8552 21.8334 16.5899 21.8334 15.623V5.95375C21.8458 4.60483 20.7766 3.1246 19.4711 2.64711ZM15.6665 9.33203L10.3201 14.465C10.1336 14.6441 9.89741 14.7277 9.66117 14.7277C9.42494 14.7277 9.18871 14.6441 9.00221 14.465L7.01285 12.5312C6.65229 12.185 6.65229 11.612 7.01285 11.2658C7.37342 10.9196 7.97022 10.9196 8.33078 11.2658L9.67361 12.5551L14.361 8.05473C14.7215 7.70855 15.3183 7.70855 15.6789 8.05473C16.0395 8.40091 16.0395 8.98584 15.6665 9.33203Z" fill="#2B6763"/>
</svg>
