<svg width="23" height="22" viewBox="0 0 23 22" fill="none" xmlns="http://www.w3.org/2000/svg">
<path d="M3.11282 22H14.4795C12.4628 20.9 11.0878 18.7916 11.0878 16.3166C11.0878 12.7416 14.0211 9.80832 17.5961 9.80832H17.6878V2.38333C17.6878 1.1 16.5878 0 15.3045 0H3.11282C1.82949 0 0.729492 1.1 0.729492 2.38333V19.6166C0.729492 20.9 1.73782 22 3.11282 22ZM5.22115 3.66666H13.1045C13.6545 3.66666 14.0211 4.12499 14.0211 4.58333C14.0211 5.13333 13.6545 5.49999 13.1045 5.49999H5.22115C4.67115 5.49999 4.30449 5.13333 4.30449 4.58333C4.30449 4.12499 4.76282 3.66666 5.22115 3.66666ZM5.22115 7.97499H10.3545C10.9045 7.97499 11.2711 8.43332 11.2711 8.89165C11.2711 9.44165 10.9045 9.80832 10.3545 9.80832H5.22115C4.67115 9.80832 4.30449 9.44165 4.30449 8.89165C4.30449 8.34165 4.76282 7.97499 5.22115 7.97499Z" fill="#2B6763"/>
<path d="M17.5959 11.7333C15.0292 11.7333 12.9209 13.8416 12.9209 16.4083C12.9209 18.9749 15.0292 21.0833 17.5959 21.0833C20.1626 21.0833 22.2709 18.9749 22.2709 16.4083C22.2709 13.8416 20.1626 11.7333 17.5959 11.7333ZM19.8876 15.9499L17.5959 18.1499C17.4126 18.3333 17.2292 18.4249 16.9542 18.4249C16.6792 18.4249 16.4959 18.3333 16.3126 18.1499L15.2126 16.9583C14.8459 16.5916 14.8459 16.0416 15.3042 15.6749C15.6709 15.3083 16.2209 15.3083 16.5876 15.6749L17.0459 16.2249L18.6959 14.6666C19.0626 14.2999 19.6126 14.2999 19.9792 14.6666C20.2542 14.9416 20.2542 15.5833 19.8876 15.9499Z" fill="#2B6763"/>
</svg>
