<svg width="100" height="64" viewBox="0 0 100 64" fill="none" xmlns="http://www.w3.org/2000/svg">
<path d="M66.3936 2.83681C68.0107 4.69588 69.1279 7.00124 69.536 9.5436C71.9509 8.04484 74.7458 7.29547 77.9206 7.29547C81.2988 7.29547 84.2439 8.16167 86.7559 9.89408C89.2679 11.5832 91.0653 13.9436 92.148 16.9753H99.684C98.9044 13.5971 97.4752 10.6304 95.3963 8.07505C93.3607 5.51975 90.8271 3.54913 87.7954 2.1632C84.7636 0.777268 81.472 0.0843034 77.9206 0.0843034C73.6151 0.0843034 69.7727 1.00181 66.3936 2.83681Z" fill="white"/>
<path d="M77.9206 47.1193C75.3122 47.1193 72.8739 46.7858 70.6055 46.1189C72.7046 44.4994 74.3141 42.2765 75.1744 39.7099C76.0558 39.8421 76.9712 39.9081 77.9206 39.9081C81.3854 39.9081 84.3955 38.9986 86.9508 37.1796C89.5061 35.3172 91.2818 32.7836 92.278 29.5786H99.8789C98.7095 34.9058 96.1326 39.1718 92.148 42.3768C88.1635 45.5385 83.421 47.1193 77.9206 47.1193Z" fill="white"/>
<path d="M35.565 47.2672L26.3181 32.8041H35.0908L39.8328 40.6284H59.5121C61.1718 40.6284 65.6768 40.1542 65.9138 33.9896C66.1035 29.0579 62.1993 27.5089 60.2234 27.3508H50.5023L45.9974 20.2378H54.7701C56.1927 20.0007 60.2234 18.341 60.2234 13.1248C60.2234 8.95185 56.2718 7.43441 54.2959 7.19731L37.4618 6.96021L33.194 0.0843031C37.1457 0.0843031 51.4982 -0.105378 54.533 0.084302C58.3266 0.321402 65.2025 3.1666 66.6251 9.80541C67.9529 16.4442 65.2816 20.633 63.7799 21.8975C70.6559 23.5572 72.7897 30.4331 72.7897 33.2783C72.4104 43.3314 65.4396 47.5043 59.9863 47.2672H35.565Z" fill="white"/>
<path d="M29.4004 0.0843034L0 47.7414H9.48401L13.9889 40.3913H27.2665L22.5245 32.8041H18.4938L29.4004 14.5474L40.5441 32.3299H49.791L29.4004 0.0843034Z" fill="white"/>
<path d="M14.347 62.6639C14.347 63.0826 14.1822 63.4211 13.8526 63.6795C13.5764 63.8933 13.2958 64.0002 13.0107 64.0002H4.32503C3.90634 64.0002 3.56782 63.8354 3.30947 63.5057C3.09567 63.2296 2.98877 62.949 2.98877 62.6639V58.6551C2.98877 58.2364 3.14912 57.8979 3.46982 57.6396C3.73708 57.4257 4.01769 57.3188 4.31167 57.3188H13.0107C13.4294 57.3188 13.768 57.4792 14.0263 57.7999C14.2401 58.0672 14.347 58.3478 14.347 58.6417L4.32503 58.6551V62.6639H13.0107V61.3143H6.99756L6.32943 59.9914H13.0107C13.4294 59.9914 13.768 60.1517 14.0263 60.4724C14.2401 60.7397 14.347 61.0203 14.347 61.3143V62.6639Z" fill="white"/>
<path d="M34.6608 64.0002H33.3246L31.9883 61.3276H24.6389V64.0002H23.3026V58.6551C23.3026 58.281 23.4318 57.9647 23.6901 57.7064C23.9485 57.448 24.2647 57.3188 24.6389 57.3188H33.3246C33.7433 57.3188 34.0818 57.4837 34.3401 57.8133C34.5539 58.0894 34.6608 58.37 34.6608 58.6551V59.9914C34.6608 60.3923 34.5272 60.7174 34.26 60.9668C34.0016 61.2074 33.6898 61.3276 33.3246 61.3276L34.6608 64.0002ZM33.3246 59.9914V58.6551H24.6389V59.9914H33.3246Z" fill="white"/>
<path d="M54.9746 62.6639C54.9746 63.0826 54.8098 63.4211 54.4802 63.6795C54.2041 63.8933 53.9235 64.0002 53.6384 64.0002H44.9527C44.5251 64.0002 44.1865 63.8398 43.9371 63.5191C43.7233 63.2519 43.6164 62.9668 43.6164 62.6639V58.6551C43.6164 58.2186 43.7768 57.8756 44.0975 57.6262C44.3558 57.4213 44.6409 57.3188 44.9527 57.3188H53.6384C54.066 57.3188 54.4045 57.4792 54.6539 57.7999C54.8678 58.0672 54.9746 58.3522 54.9746 58.6551V62.6639ZM53.6384 62.6639V58.6551H44.9527V62.6639H53.6384Z" fill="white"/>
<path d="M75.2885 62.6639C75.2885 63.0826 75.1237 63.4211 74.7941 63.6795C74.5179 63.8933 74.2373 64.0002 73.9522 64.0002H65.2665C64.8389 64.0002 64.5004 63.8398 64.2509 63.5191C64.0371 63.2519 63.9302 62.9668 63.9302 62.6639V58.6551C63.9302 58.2186 64.0906 57.8756 64.4113 57.6262C64.6696 57.4213 64.9547 57.3188 65.2665 57.3188V62.6639H73.9522V57.3188C74.3798 57.3188 74.7183 57.4792 74.9678 57.7999C75.1816 58.0672 75.2885 58.3522 75.2885 58.6551V62.6639Z" fill="white"/>
<path d="M95.6023 59.9914C95.6023 60.4101 95.4375 60.7486 95.1079 61.0069C94.8317 61.2207 94.5511 61.3276 94.266 61.3276H85.5803V64.0002H84.244V58.6551C84.244 58.2364 84.4089 57.8979 84.7385 57.6396C85.0146 57.4257 85.2952 57.3188 85.5803 57.3188H94.266C94.6847 57.3188 95.0232 57.4837 95.2816 57.8133C95.4954 58.0894 95.6023 58.37 95.6023 58.6551V59.9914ZM94.266 59.9914V58.6551H85.5803V59.9914H94.266Z" fill="white"/>
</svg>
