<svg width="100" height="64" viewBox="0 0 100 64" fill="none" xmlns="http://www.w3.org/2000/svg">
<path d="M66.3936 2.83681C68.0107 4.69588 69.1279 7.00124 69.536 9.5436C71.9509 8.04484 74.7458 7.29547 77.9206 7.29547C81.2988 7.29547 84.2439 8.16167 86.7559 9.89408C89.2679 11.5832 91.0653 13.9436 92.148 16.9753H99.684C98.9044 13.5971 97.4752 10.6304 95.3963 8.07505C93.3607 5.51975 90.8271 3.54913 87.7954 2.1632C84.7636 0.777268 81.472 0.0843034 77.9206 0.0843034C73.6151 0.0843034 69.7727 1.00181 66.3936 2.83681Z" fill="#2B6763"/>
<path d="M77.9206 47.1193C75.3122 47.1193 72.8739 46.7858 70.6055 46.1189C72.7046 44.4994 74.3141 42.2765 75.1744 39.7099C76.0558 39.8421 76.9712 39.9081 77.9206 39.9081C81.3854 39.9081 84.3955 38.9986 86.9508 37.1796C89.5061 35.3172 91.2818 32.7836 92.278 29.5786H99.8789C98.7095 34.9058 96.1326 39.1718 92.148 42.3768C88.1635 45.5385 83.421 47.1193 77.9206 47.1193Z" fill="#2B6763"/>
<path d="M35.565 47.2672L26.3181 32.8041H35.0908L39.8328 40.6284H59.5121C61.1718 40.6284 65.6768 40.1542 65.9138 33.9896C66.1035 29.0579 62.1993 27.5089 60.2234 27.3508H50.5023L45.9974 20.2378H54.7701C56.1927 20.0007 60.2234 18.341 60.2234 13.1248C60.2234 8.95185 56.2718 7.43441 54.2959 7.19731L37.4618 6.96021L33.194 0.0843031C37.1457 0.0843031 51.4982 -0.105378 54.533 0.084302C58.3266 0.321402 65.2025 3.1666 66.6251 9.80541C67.9529 16.4442 65.2816 20.633 63.7799 21.8975C70.6559 23.5572 72.7897 30.4331 72.7897 33.2783C72.4104 43.3314 65.4396 47.5043 59.9863 47.2672H35.565Z" fill="#2B6763"/>
<path d="M29.4004 0.0843034L0 47.7414H9.48401L13.9889 40.3913H27.2665L22.5245 32.8041H18.4938L29.4004 14.5474L40.5441 32.3299H49.791L29.4004 0.0843034Z" fill="#2B6763"/>
<path d="M14.347 62.6637C14.347 63.0824 14.1822 63.421 13.8526 63.6793C13.5764 63.8931 13.2958 64 13.0107 64H4.32503C3.90634 64 3.56782 63.8352 3.30947 63.5056C3.09567 63.2294 2.98877 62.9488 2.98877 62.6637V58.6549C2.98877 58.2362 3.14912 57.8977 3.46982 57.6394C3.73708 57.4256 4.01769 57.3187 4.31167 57.3187H13.0107C13.4294 57.3187 13.768 57.479 14.0263 57.7997C14.2401 58.067 14.347 58.3476 14.347 58.6416L4.32503 58.6549V62.6637H13.0107V61.3141H6.99756L6.32943 59.9912H13.0107C13.4294 59.9912 13.768 60.1516 14.0263 60.4723C14.2401 60.7395 14.347 61.0201 14.347 61.3141V62.6637Z" fill="#2B6763"/>
<path d="M34.6608 64H33.3246L31.9883 61.3275H24.6389V64H23.3026V58.6549C23.3026 58.2808 23.4318 57.9645 23.6901 57.7062C23.9485 57.4479 24.2647 57.3187 24.6389 57.3187H33.3246C33.7433 57.3187 34.0818 57.4835 34.3401 57.8131C34.5539 58.0893 34.6608 58.3699 34.6608 58.6549V59.9912C34.6608 60.3921 34.5272 60.7172 34.26 60.9667C34.0016 61.2072 33.6898 61.3275 33.3246 61.3275L34.6608 64ZM33.3246 59.9912V58.6549H24.6389V59.9912H33.3246Z" fill="#2B6763"/>
<path d="M54.9746 62.6637C54.9746 63.0824 54.8098 63.421 54.4802 63.6793C54.2041 63.8931 53.9235 64 53.6384 64H44.9527C44.5251 64 44.1865 63.8396 43.9371 63.5189C43.7233 63.2517 43.6164 62.9666 43.6164 62.6637V58.6549C43.6164 58.2184 43.7768 57.8755 44.0975 57.626C44.3558 57.4211 44.6409 57.3187 44.9527 57.3187H53.6384C54.066 57.3187 54.4045 57.479 54.6539 57.7997C54.8678 58.067 54.9746 58.3521 54.9746 58.6549V62.6637ZM53.6384 62.6637V58.6549H44.9527V62.6637H53.6384Z" fill="#2B6763"/>
<path d="M75.2885 62.6637C75.2885 63.0824 75.1237 63.421 74.7941 63.6793C74.5179 63.8931 74.2373 64 73.9522 64H65.2665C64.8389 64 64.5004 63.8396 64.2509 63.5189C64.0371 63.2517 63.9302 62.9666 63.9302 62.6637V58.6549C63.9302 58.2184 64.0906 57.8755 64.4113 57.626C64.6696 57.4211 64.9547 57.3187 65.2665 57.3187V62.6637H73.9522V57.3187C74.3798 57.3187 74.7183 57.479 74.9678 57.7997C75.1816 58.067 75.2885 58.3521 75.2885 58.6549V62.6637Z" fill="#2B6763"/>
<path d="M95.6023 59.9912C95.6023 60.4099 95.4375 60.7484 95.1079 61.0068C94.8317 61.2206 94.5511 61.3275 94.266 61.3275H85.5803V64H84.244V58.6549C84.244 58.2362 84.4089 57.8977 84.7385 57.6394C85.0146 57.4256 85.2952 57.3187 85.5803 57.3187H94.266C94.6847 57.3187 95.0232 57.4835 95.2816 57.8131C95.4954 58.0893 95.6023 58.3699 95.6023 58.6549V59.9912ZM94.266 59.9912V58.6549H85.5803V59.9912H94.266Z" fill="#2B6763"/>
</svg>
