<svg width="85" height="68" viewBox="0 0 85 68" fill="none" xmlns="http://www.w3.org/2000/svg">
<g filter="url(#filter0_d_28_22)">
<path fill-rule="evenodd" clip-rule="evenodd" d="M12 0C7.58172 0 4 3.58172 4 8V43.5493C4 47.9676 7.58173 51.5493 12 51.5493H38.97L42.8732 60L46.7765 51.5493H72.9014C77.3197 51.5493 80.9014 47.9676 80.9014 43.5493V8C80.9014 3.58172 77.3197 0 72.9014 0H12Z" fill="#FBFCFC"/>
</g>
<path d="M50.2608 12.349C51.0222 13.2331 51.5482 14.3293 51.7404 15.5383C52.8774 14.8256 54.1933 14.4692 55.6882 14.4692C57.2788 14.4692 58.6654 14.8812 59.8482 15.705C61.0309 16.5082 61.8772 17.6307 62.387 19.0724H65.9353C65.5682 17.4659 64.8953 16.0551 63.9164 14.84C62.958 13.6248 61.7651 12.6877 60.3376 12.0287C58.9101 11.3696 57.3603 11.0401 55.6882 11.0401C53.6609 11.0401 51.8518 11.4764 50.2608 12.349Z" fill="#2B6763"/>
<path d="M55.6882 33.4068C54.46 33.4068 53.312 33.2483 52.2439 32.9311C53.2322 32.161 53.9901 31.1039 54.3951 29.8834C54.8101 29.9463 55.2412 29.9777 55.6882 29.9777C57.3195 29.9777 58.7368 29.5452 59.9399 28.6802C61.1431 27.7946 61.9792 26.5897 62.4482 25.0657H66.027C65.4764 27.5989 64.2631 29.6276 62.387 31.1516C60.5109 32.6551 58.278 33.4068 55.6882 33.4068Z" fill="#2B6763"/>
<path d="M35.7454 33.4772L31.3916 26.5995H35.5222L37.7549 30.3202H47.0207C47.8022 30.3202 49.9233 30.0947 50.0349 27.1632C50.1242 24.8181 48.2859 24.0814 47.3556 24.0063H42.7785L40.6574 20.6238H44.788C45.4578 20.511 47.3556 19.7218 47.3556 17.2413C47.3556 15.2569 45.495 14.5353 44.5647 14.4226L36.6385 14.3098L34.6291 11.0401C36.4897 11.0401 43.2474 10.9499 44.6764 11.0401C46.4625 11.1528 49.7 12.5058 50.3698 15.6628C50.995 18.8198 49.7372 20.8117 49.0302 21.413C52.2676 22.2023 53.2724 25.472 53.2724 26.825C53.0937 31.6056 49.8116 33.59 47.244 33.4772H35.7454Z" fill="#2B6763"/>
<path d="M32.8429 11.0401L19 33.7027H23.4655L25.5865 30.2075H31.8382L29.6055 26.5995H27.7076L32.8429 17.9178L38.0898 26.374H42.4436L32.8429 11.0401Z" fill="#2B6763"/>
<path d="M25.8918 40.3513C25.8918 40.5546 25.8154 40.7189 25.6624 40.8443C25.5343 40.9481 25.4041 41 25.2718 41H21.2416C21.0473 41 20.8903 40.92 20.7704 40.76C20.6712 40.6259 20.6216 40.4897 20.6216 40.3513V38.4054C20.6216 38.2021 20.696 38.0378 20.8448 37.9124C20.9688 37.8086 21.099 37.7567 21.2354 37.7567H25.2718C25.4661 37.7567 25.6232 37.8346 25.743 37.9902C25.8422 38.12 25.8918 38.2562 25.8918 38.3989L21.2416 38.4054V40.3513H25.2718V39.6962H22.4817L22.1717 39.054H25.2718C25.4661 39.054 25.6232 39.1318 25.743 39.2875C25.8422 39.4173 25.8918 39.5535 25.8918 39.6962V40.3513Z" fill="#2B6763"/>
<path d="M35.3175 41H34.6975L34.0775 39.7027H30.6673V41H30.0473V38.4054C30.0473 38.2237 30.1072 38.0702 30.2271 37.9448C30.3469 37.8194 30.4937 37.7567 30.6673 37.7567H34.6975C34.8918 37.7567 35.0488 37.8367 35.1687 37.9967C35.2679 38.1308 35.3175 38.267 35.3175 38.4054V39.054C35.3175 39.2486 35.2555 39.4064 35.1315 39.5275C35.0116 39.6443 34.867 39.7027 34.6975 39.7027L35.3175 41ZM34.6975 39.054V38.4054H30.6673V39.054H34.6975Z" fill="#2B6763"/>
<path d="M44.7432 40.3513C44.7432 40.5546 44.6667 40.7189 44.5138 40.8443C44.3856 40.9481 44.2554 41 44.1232 41H40.093C39.8946 41 39.7375 40.9221 39.6217 40.7664C39.5225 40.6367 39.4729 40.4983 39.4729 40.3513V38.4054C39.4729 38.1935 39.5473 38.027 39.6961 37.9059C39.816 37.8064 39.9483 37.7567 40.093 37.7567H44.1232C44.3216 37.7567 44.4787 37.8346 44.5944 37.9902C44.6936 38.12 44.7432 38.2583 44.7432 38.4054V40.3513ZM44.1232 40.3513V38.4054H40.093V40.3513H44.1232Z" fill="#2B6763"/>
<path d="M54.1689 40.3513C54.1689 40.5546 54.0924 40.7189 53.9395 40.8443C53.8113 40.9481 53.6811 41 53.5488 41H49.5186C49.3202 41 49.1632 40.9221 49.0474 40.7664C48.9482 40.6367 48.8986 40.4983 48.8986 40.3513V38.4054C48.8986 38.1935 48.973 38.027 49.1218 37.9059C49.2417 37.8064 49.374 37.7567 49.5186 37.7567V40.3513H53.5488V37.7567C53.7473 37.7567 53.9043 37.8346 54.0201 37.9902C54.1193 38.12 54.1689 38.2583 54.1689 38.4054V40.3513Z" fill="#2B6763"/>
<path d="M63.5946 39.054C63.5946 39.2573 63.5181 39.4216 63.3651 39.547C63.237 39.6508 63.1068 39.7027 62.9745 39.7027H58.9443V41H58.3243V38.4054C58.3243 38.2021 58.4008 38.0378 58.5537 37.9124C58.6818 37.8086 58.812 37.7567 58.9443 37.7567H62.9745C63.1688 37.7567 63.3259 37.8367 63.4457 37.9967C63.545 38.1308 63.5946 38.267 63.5946 38.4054V39.054ZM62.9745 39.054V38.4054H58.9443V39.054H62.9745Z" fill="#2B6763"/>
<defs>
<filter id="filter0_d_28_22" x="0" y="0" width="84.9014" height="68" filterUnits="userSpaceOnUse" color-interpolation-filters="sRGB">
<feFlood flood-opacity="0" result="BackgroundImageFix"/>
<feColorMatrix in="SourceAlpha" type="matrix" values="0 0 0 0 0 0 0 0 0 0 0 0 0 0 0 0 0 0 127 0" result="hardAlpha"/>
<feOffset dy="4"/>
<feGaussianBlur stdDeviation="2"/>
<feComposite in2="hardAlpha" operator="out"/>
<feColorMatrix type="matrix" values="0 0 0 0 0 0 0 0 0 0 0 0 0 0 0 0 0 0 0.15 0"/>
<feBlend mode="normal" in2="BackgroundImageFix" result="effect1_dropShadow_28_22"/>
<feBlend mode="normal" in="SourceGraphic" in2="effect1_dropShadow_28_22" result="shape"/>
</filter>
</defs>
</svg>
