<svg width="42" height="42" viewBox="0 0 42 42" fill="none" xmlns="http://www.w3.org/2000/svg">
<rect width="42" height="42" rx="21" fill="#32B767"/>
<path d="M21 12.5C16.0275 12.5 12 16.3038 12 21C12 22.87 12.63 24.5912 13.71 25.9937L12.4725 29.075L16.05 28.0975C17.4675 28.99 19.1775 29.5 21 29.5C25.9725 29.5 30 25.6963 30 21C30 16.3038 25.9725 12.5 21 12.5ZM25.7925 24.5275L24.825 25.42C23.8125 26.3763 21.135 25.335 18.7725 23.0825C16.41 20.8512 15.3525 18.3225 16.2975 17.3875L17.265 16.4738C17.625 16.1338 18.2325 16.1338 18.615 16.4738L20.0325 17.8125C20.5275 18.28 20.325 19.0875 19.6725 19.2787C19.2225 19.4275 18.9075 19.895 19.065 20.32C19.3125 21.3187 20.685 22.5512 21.6975 22.785C22.1475 22.8912 22.665 22.6363 22.8 22.2113C23.0025 21.595 23.8575 21.4037 24.3525 21.8712L25.77 23.21C26.13 23.5713 26.13 24.145 25.7925 24.5275Z" fill="white"/>
</svg>
